<svg width="854" height="146" viewBox="0 0 854 146" fill="none" xmlns="http://www.w3.org/2000/svg">
<rect width="146" height="146" rx="32" fill="url(#paint0_radial_1841_2)"/>
<path d="M89.6629 35.0131C80.4711 25.6697 65.5289 25.655 56.3371 35.0131L26.9835 64.8972C22.4808 69.4732 20 75.5943 20 82.1126C20 88.6309 22.4808 94.7519 26.9978 99.3574L38.4123 110.981C43.0011 115.66 49.0381 118 55.0752 118C61.1833 118 66.3955 113.195 70.8681 108.671C72.0448 107.481 73.9552 107.481 75.1319 108.671C79.6045 113.195 84.8167 118 90.9248 118C96.9619 118 102.999 115.66 107.588 110.981L119.002 99.3574C123.519 94.7666 126 88.6456 126 82.1273C126 75.609 123.519 69.488 119.002 64.8972L89.6629 35.0131ZM65.4286 42.5908C69.6015 38.3384 76.3985 38.3384 80.5714 42.5908L98.2292 60.5644C99.3758 61.7315 99.4341 63.6556 98.4417 64.9564C96.2144 67.8759 93.0068 72.0618 89.9502 72.0618C82.1248 72.0618 80.9817 63.0557 73 63.0557C69.1569 63.0557 66.3048 64.9492 63.3795 67.9215L59.056 71.6887C57.8257 72.7608 55.964 72.6527 54.8659 71.4455L49.4944 65.5398C47.7096 63.5775 47.7677 60.5629 49.6269 58.6709L65.4286 42.5908ZM49.7131 103.871L35.1147 88.9404C28.4679 82.1201 33.6967 76.5921 38.1196 72.1597C38.9118 71.3657 40.2054 71.3677 40.9914 72.1677L64.8655 96.4673C65.6311 97.2465 65.6348 98.4982 64.8664 99.2745C60.7236 103.46 54.7063 108.959 49.7131 103.871ZM98.3012 101.564C94.1283 105.817 87.3312 105.817 83.1583 101.564L66.2761 83.9954C65.1515 82.825 65.1187 80.9335 66.1389 79.671C68.0917 77.2547 70.6119 74.1922 72.7906 74.1922C75.4079 74.1922 78.9649 77.0157 80.6191 78.7131C83.5444 81.6853 86.8364 83.9799 90.6795 83.9799C94.5225 83.9799 96.9157 81.108 99.841 78.1358L105.095 73.9087C106.294 72.9441 108.044 73.0267 109.152 74.0944C111.541 76.3971 114.319 79.2805 114.319 82.1126C114.319 85.0701 111.752 87.8657 109.701 89.9551L98.3012 101.564Z" fill="white"/>
<path d="M89.6629 35.0131C80.4711 25.6697 65.5289 25.655 56.3371 35.0131L26.9835 64.8972C22.4808 69.4732 20 75.5943 20 82.1126C20 88.6309 22.4808 94.7519 26.9978 99.3574L38.4123 110.981C43.0011 115.66 49.0381 118 55.0752 118C61.1833 118 66.3955 113.195 70.8681 108.671C72.0448 107.481 73.9552 107.481 75.1319 108.671C79.6045 113.195 84.8167 118 90.9248 118C96.9619 118 102.999 115.66 107.588 110.981L119.002 99.3574C123.519 94.7666 126 88.6456 126 82.1273C126 75.609 123.519 69.488 119.002 64.8972L89.6629 35.0131ZM65.4286 42.5908C69.6015 38.3384 76.3985 38.3384 80.5714 42.5908L98.2292 60.5644C99.3758 61.7315 99.4341 63.6556 98.4417 64.9564C96.2144 67.8759 93.0068 72.0618 89.9502 72.0618C82.1248 72.0618 80.9817 63.0557 73 63.0557C69.1569 63.0557 66.3048 64.9492 63.3795 67.9215L59.056 71.6887C57.8257 72.7608 55.964 72.6527 54.8659 71.4455L49.4944 65.5398C47.7096 63.5775 47.7677 60.5629 49.6269 58.6709L65.4286 42.5908ZM49.7131 103.871L35.1147 88.9404C28.4679 82.1201 33.6967 76.5921 38.1196 72.1597C38.9118 71.3657 40.2054 71.3677 40.9914 72.1677L64.8655 96.4673C65.6311 97.2465 65.6348 98.4982 64.8664 99.2745C60.7236 103.46 54.7063 108.959 49.7131 103.871ZM98.3012 101.564C94.1283 105.817 87.3312 105.817 83.1583 101.564L66.2761 83.9954C65.1515 82.825 65.1187 80.9335 66.1389 79.671C68.0917 77.2547 70.6119 74.1922 72.7906 74.1922C75.4079 74.1922 78.9649 77.0157 80.6191 78.7131C83.5444 81.6853 86.8364 83.9799 90.6795 83.9799C94.5225 83.9799 96.9157 81.108 99.841 78.1358L105.095 73.9087C106.294 72.9441 108.044 73.0267 109.152 74.0944C111.541 76.3971 114.319 79.2805 114.319 82.1126C114.319 85.0701 111.752 87.8657 109.701 89.9551L98.3012 101.564Z" stroke="white"/>
<path d="M807.437 31.249C808.069 31.087 808.685 31.5648 808.685 32.2178V74.6591C808.685 75.5786 809.821 76.0107 810.432 75.3235L828.882 54.567C829.072 54.3535 829.344 54.2313 829.63 54.2313H849.78C850.66 54.2313 851.111 55.2853 850.504 55.9217L829.713 77.7076C829.399 78.0363 829.347 78.535 829.585 78.922L853.009 117.001C853.419 117.668 852.94 118.525 852.158 118.525H832.176C831.831 118.525 831.51 118.347 831.327 118.054L816.2 93.7594C815.855 93.2038 815.077 93.1248 814.626 93.5995L808.96 99.5699C808.783 99.7557 808.685 100.002 808.685 100.258V117.525C808.685 118.078 808.237 118.525 807.685 118.525H790.165C789.613 118.525 789.165 118.078 789.165 117.525V36.7055C789.165 36.2487 789.474 35.8501 789.917 35.7367L807.437 31.249Z" fill="black"/>
<path d="M781.679 54.0219C782.191 54.0687 782.58 54.5006 782.58 55.0143V71.7054C782.58 72.3272 782.019 72.7962 781.403 72.7068C779.894 72.4876 778.605 72.4094 776.846 72.4094C768.428 72.4094 761.718 77.6554 761.718 86.9274V117.525C761.718 118.078 761.27 118.525 760.718 118.525H743.198C742.646 118.525 742.198 118.078 742.198 117.525V55.2314C742.198 54.6791 742.646 54.2314 743.198 54.2314H760.718C761.27 54.2314 761.718 54.6791 761.718 55.2314V58.8838C761.718 59.9093 763.263 60.3855 763.971 59.6439C767.305 56.1533 772.426 53.8654 778.31 53.8654C779.694 53.8654 780.729 53.9351 781.679 54.0219Z" fill="black"/>
<path d="M734.306 86.4393C734.306 106.447 721.008 119.867 702.098 119.867C683.066 119.867 669.89 106.447 669.89 86.4393C669.89 66.4313 683.066 52.8893 702.098 52.8893C721.008 52.8893 734.306 66.4313 734.306 86.4393ZM689.288 86.4393C689.288 97.6633 694.29 104.007 702.098 104.007C709.906 104.007 714.908 97.6633 714.908 86.4393C714.908 75.2153 709.906 68.8713 702.098 68.8713C694.29 68.8713 689.288 75.2153 689.288 86.4393Z" fill="black"/>
<path d="M616.513 54.9836C616.626 54.541 617.025 54.2313 617.482 54.2313H630.571C631.027 54.2313 631.425 54.5395 631.539 54.9807L640.143 88.2133C640.402 89.2109 641.817 89.2131 642.079 88.2163L650.792 54.9778C650.907 54.538 651.304 54.2313 651.759 54.2313H668.671C669.342 54.2313 669.823 54.8795 669.628 55.5218L650.715 117.816C650.587 118.237 650.198 118.525 649.758 118.525H634.541C634.094 118.525 633.701 118.229 633.579 117.799L624.621 86.2853C624.346 85.3166 622.973 85.3166 622.697 86.2853L613.74 117.799C613.618 118.229 613.225 118.525 612.778 118.525H597.561C597.12 118.525 596.732 118.237 596.604 117.816L577.691 55.5218C577.496 54.8795 577.977 54.2313 578.648 54.2313H596.294C596.748 54.2313 597.144 54.5365 597.261 54.9748L606.083 88.2191C606.347 89.2152 607.763 89.2087 608.018 88.2103L616.513 54.9836Z" fill="black"/>
<path d="M533.522 86.4393C533.522 97.2973 538.646 103.763 546.82 103.763C552.764 103.763 556.46 99.7997 558.005 94.2817C558.171 93.691 558.804 93.3498 559.376 93.572L574.424 99.418C574.894 99.6005 575.156 100.104 575.017 100.588C572.021 110.965 562.018 119.867 546.698 119.867C527.666 119.867 514.246 106.203 514.246 86.4393C514.246 66.5533 527.666 52.8893 546.698 52.8893C561.897 52.8893 571.78 61.673 574.884 71.9284C575.03 72.4102 574.774 72.9171 574.308 73.1063L559.381 79.1636C558.809 79.3959 558.167 79.0578 557.996 78.4639C556.445 73.0484 552.753 68.9933 546.82 68.9933C538.646 68.9933 533.522 75.5813 533.522 86.4393Z" fill="black"/>
<path d="M496.017 54.2313C500.987 54.2313 505.017 58.2608 505.017 63.2313V117.525C505.017 118.078 504.569 118.525 504.017 118.525H486.497C485.945 118.525 485.497 118.078 485.497 117.525V55.2313C485.497 54.679 485.945 54.2313 486.497 54.2313H496.017Z" fill="black"/>
<path d="M396.241 81.8033V117.525C396.241 118.078 395.794 118.525 395.241 118.525H377.721C377.169 118.525 376.721 118.078 376.721 117.525V55.2313C376.721 54.679 377.169 54.2313 377.721 54.2313H395.241C395.794 54.2313 396.241 54.679 396.241 55.2313V57.9225C396.241 58.8448 397.421 59.3079 398.108 58.6929C401.703 55.4764 406.937 52.8893 413.809 52.8893C420.997 52.8893 427.01 55.7696 430.753 60.6325C431.15 61.148 431.922 61.2075 432.38 60.7457C436.144 56.952 442.254 52.8893 451.385 52.8893C464.439 52.8893 473.101 62.0393 473.101 76.0693V117.525C473.101 118.078 472.654 118.525 472.101 118.525H454.581C454.029 118.525 453.581 118.078 453.581 117.525V81.6813C453.581 75.2153 451.019 70.4573 444.797 70.4573C439.673 70.4573 434.671 74.2393 434.671 81.8033V117.525C434.671 118.078 434.224 118.525 433.671 118.525H416.151C415.599 118.525 415.151 118.078 415.151 117.525V81.6813C415.151 75.2153 412.711 70.4573 406.367 70.4573C401.243 70.4573 396.241 74.2393 396.241 81.8033Z" fill="black"/>
<path d="M368.83 86.4393C368.83 106.447 355.532 119.867 336.622 119.867C317.59 119.867 304.414 106.447 304.414 86.4393C304.414 66.4313 317.59 52.8893 336.622 52.8893C355.532 52.8893 368.83 66.4313 368.83 86.4393ZM323.812 86.4393C323.812 97.6633 328.814 104.007 336.622 104.007C344.43 104.007 349.432 97.6633 349.432 86.4393C349.432 75.2153 344.43 68.8713 336.622 68.8713C328.814 68.8713 323.812 75.2153 323.812 86.4393Z" fill="black"/>
<path d="M265.423 101.323V71.3353C265.423 70.783 264.976 70.3353 264.423 70.3353H258.249C257.697 70.3353 257.249 69.8876 257.249 69.3353V55.2313C257.249 54.679 257.697 54.2313 258.249 54.2313H264.423C264.976 54.2313 265.423 53.7836 265.423 53.2313V37.4193C265.423 36.867 265.871 36.4193 266.423 36.4193H283.699C284.252 36.4193 284.699 36.867 284.699 37.4193V53.2313C284.699 53.7836 285.147 54.2313 285.699 54.2313H296.265C296.818 54.2313 297.265 54.679 297.265 55.2313V69.3353C297.265 69.8876 296.818 70.3353 296.265 70.3353H285.699C285.147 70.3353 284.699 70.783 284.699 71.3353V96.3213C284.699 101.689 287.505 102.665 292.385 102.665C294.279 102.665 295.358 102.584 296.886 102.421C297.479 102.358 297.997 102.821 297.997 103.417V117.414C297.997 117.912 297.632 118.334 297.138 118.401C293.965 118.828 290.535 119.135 286.285 119.135C272.377 119.135 265.423 114.499 265.423 101.323Z" fill="black"/>
<path d="M202.089 31.5831C202.234 31.1902 202.608 30.9293 203.027 30.9293H224.935C225.354 30.9293 225.728 31.1902 225.873 31.5831L257.465 117.179C257.706 117.832 257.223 118.525 256.527 118.525H237.924C237.503 118.525 237.127 118.261 236.984 117.865L231.116 101.618C230.973 101.221 230.597 100.957 230.176 100.957H197.176C196.755 100.957 196.379 101.221 196.236 101.618L190.368 117.865C190.225 118.261 189.849 118.525 189.428 118.525H171.435C170.739 118.525 170.256 117.832 170.497 117.179L202.089 31.5831ZM214.499 56.1067C214.18 55.2262 212.934 55.2284 212.618 56.1101L203.054 82.7838C202.82 83.4353 203.303 84.1213 203.995 84.1213H223.23C223.923 84.1213 224.406 83.4325 224.17 82.7805L214.499 56.1067Z" fill="black"/>
<path d="M495.5 47.1328C501.299 47.1328 506 42.4318 506 36.6328C506 30.8338 501.299 26.1328 495.5 26.1328C489.701 26.1328 485 30.8338 485 36.6328C485 42.4318 489.701 47.1328 495.5 47.1328Z" fill="black"/>
<defs>
<radialGradient id="paint0_radial_1841_2" cx="0" cy="0" r="1" gradientUnits="userSpaceOnUse" gradientTransform="translate(10 16.5) rotate(44.5342) scale(173.954)">
<stop stop-color="#7C3AED"/>
<stop offset="1" stop-color="#9966FF"/>
</radialGradient>
</defs>
</svg>
